# xmcd
#
# Track frame offsets:
#	150
#	21742
#	42434
#	56768
#	80568
#	102036
#	123555
#	143189
#	165644
#	187562
#	210431
#	232742
#	249221
#	270234
#	290764
#
# Disc length: 4135 seconds
#
# Revision: 1
# Processed by: cddbd v1.5.2PL0 Copyright (c) Steve Scherf et al.
# Submitted via: EZCDAudioConverter 8.0.2.1
#
DISCID=c910250f
DTITLE=Various Artist - Liên Khúc Đón Xuân
DYEAR=2009
DGENRE=Pop
TTITLE0=Thiên Kim, Đoàn Phi, Quốc Khanh, Ánh Minh - LK Xuân yêu thương, Điệp k
TTITLE0=húc mùa xuân
TTITLE1=Ngọc Huyền - Đón xuân này nhớ xuân xưa
TTITLE2=Đoàn Phi, Thủy Hương - Thiên duyên tiền định
TTITLE3=Đan Nguyên - cám ơn
TTITLE4=Băng Tâm - Gái xuân
TTITLE5=Nguyên Khang - Em đến thăm anh đêm ba mươi
TTITLE6=Hồ Hoàng Yến - Mộng chiều xuân
TTITLE7=Philip Huy - Đồn vắng chiều xuân
TTITLE8=Y Phương - Anh đã thấy mùa xuân chưa
TTITLE9=Nguyễn Hồng Nhung - Bến xuân
TTITLE10=Lâm Nhật Tiến - Thư xuân hải ngoại
TTITLE11=Đặng Thế Luân - Xuân này con về mẹ ở đâu
TTITLE12=Tuấn Vũ - Thư xuân ba viết cho con
TTITLE13=Mỹ Huyền - Câu chuyện đầu năm
TTITLE14=Tường Nguyên, Tường Khuê - Xuân này con không về
EXTD=
EXTT0=
EXTT1=
EXTT2=
EXTT3=
EXTT4=
EXTT5=
EXTT6=
EXTT7=
EXTT8=
EXTT9=
EXTT10=
EXTT11=
EXTT12=
EXTT13=
EXTT14=
PLAYORDER=
